<?xml version="1.0" encoding="UTF-8"?>
<svg xmlns="http://www.w3.org/2000/svg" version="1.1" viewBox="0 0 277.4 331.1">
  <defs>
    <style>
      .cls-1 {
        fill: #fff;
      }
    </style>
  </defs>
  <!-- Generator: Adobe Illustrator 28.7.1, SVG Export Plug-In . SVG Version: 1.2.0 Build 142)  -->
  <g>
    <g id="Layer_2">
      <polygon class="cls-1" points="178.6 56.3 212 95.9 177.8 155.3 131 101.8 158.7 56.3 178.6 56.3"/>
    </g>
    <g id="Layer_1">
      <path d="M0,.7C27.7.7,54,2.2,80,.2c19.5-1.5,30.2,4.4,36.4,23,5.1,15,13.6,28.9,21.8,45.7,8.7-18,17-33.7,24-50,4.2-9.7,9.5-14,20.7-14.1,30.9-.3,61.8-2.2,94.5-3.5-2.7,6.3-4.6,11.3-7,16-24.7,51.1-49.7,102.1-74.1,153.4-3.2,6.8-5.1,14.9-5.1,22.4-.5,41.5-.2,83-.2,124.6v13.5h-99.8c-.2-4.1-.7-8.6-.7-13.1,0-41.9.2-83.8-.3-125.8,0-7.1-2.1-14.7-5.3-21.1C58.6,118.3,31.7,65.6,5.1,12.8,3.3,9.4,2.1,5.8,0,.7ZM171,136.6c6.2-14.4,11.7-26.9,17.1-39.5-1-.4-2-.8-3-1.2-3,13.6-26.2,19-14.1,40.7ZM178.6,83.3c-23.9,25-24.2,24.8-15.2,34.8,5.2-12,10.2-23.4,15.2-34.8ZM154.1,101.8c4.5-10.3,7.9-18.2,11.4-26.1-5.5,7-18.7,10.9-11.4,26.1Z"/>
    </g>
  </g>
</svg>